<mxfile host="app.diagrams.net" agent="Mozilla/5.0 (Windows NT 10.0; Win64; x64) AppleWebKit/537.36 (KHTML, like Gecko) Chrome/131.0.0.0 Safari/537.36" version="26.0.2">
  <diagram name="Page-1" id="wsDfjI5d7TI5WwQlB0uh">
    <mxGraphModel dx="2437" dy="1068" grid="1" gridSize="10" guides="1" tooltips="1" connect="1" arrows="1" fold="1" page="1" pageScale="1" pageWidth="850" pageHeight="1100" math="0" shadow="0">
      <root>
        <mxCell id="0" />
        <mxCell id="1" parent="0" />
        <mxCell id="15BEtwgOpc0CsVAxBUM_-1" style="edgeStyle=orthogonalEdgeStyle;rounded=0;orthogonalLoop=1;jettySize=auto;html=1;exitX=1;exitY=0.5;exitDx=0;exitDy=0;entryX=0;entryY=0.5;entryDx=0;entryDy=0;fontSize=24;" parent="1" source="15BEtwgOpc0CsVAxBUM_-3" target="15BEtwgOpc0CsVAxBUM_-24" edge="1">
          <mxGeometry relative="1" as="geometry" />
        </mxCell>
        <mxCell id="15BEtwgOpc0CsVAxBUM_-2" style="edgeStyle=orthogonalEdgeStyle;rounded=0;orthogonalLoop=1;jettySize=auto;html=1;exitX=0;exitY=0.5;exitDx=0;exitDy=0;entryX=1;entryY=0.5;entryDx=0;entryDy=0;fontSize=24;" parent="1" source="15BEtwgOpc0CsVAxBUM_-3" target="15BEtwgOpc0CsVAxBUM_-29" edge="1">
          <mxGeometry relative="1" as="geometry" />
        </mxCell>
        <mxCell id="15BEtwgOpc0CsVAxBUM_-3" value="&lt;font color=&quot;#073042&quot;&gt;app&lt;/font&gt;" style="rounded=1;whiteSpace=wrap;html=1;fillColor=#00E489;strokeColor=none;fontSize=24;" parent="1" vertex="1">
          <mxGeometry x="1641" y="480" width="200" height="50" as="geometry" />
        </mxCell>
        <mxCell id="15BEtwgOpc0CsVAxBUM_-4" value="&lt;font color=&quot;#ffffff&quot;&gt;:feature:login&lt;/font&gt;" style="rounded=1;whiteSpace=wrap;html=1;fillColor=#FF8A65;strokeColor=none;fontSize=24;flipV=0;flipH=0;" parent="1" vertex="1">
          <mxGeometry x="1641" y="710" width="200" height="50" as="geometry" />
        </mxCell>
        <mxCell id="15BEtwgOpc0CsVAxBUM_-5" value="&lt;font color=&quot;#ffffff&quot;&gt;:feature:home&lt;/font&gt;" style="rounded=1;whiteSpace=wrap;html=1;fillColor=#FF8A65;strokeColor=none;fontSize=24;flipV=0;flipH=0;" parent="1" vertex="1">
          <mxGeometry x="1405" y="710" width="200" height="50" as="geometry" />
        </mxCell>
        <mxCell id="15BEtwgOpc0CsVAxBUM_-6" value="&lt;font color=&quot;#ffffff&quot;&gt;:feature:watchlist&lt;/font&gt;" style="rounded=1;whiteSpace=wrap;html=1;fillColor=#FF8A65;strokeColor=none;fontSize=24;flipV=0;flipH=0;" parent="1" vertex="1">
          <mxGeometry x="2580" y="710" width="200" height="50" as="geometry" />
        </mxCell>
        <mxCell id="15BEtwgOpc0CsVAxBUM_-7" value="&lt;span style=&quot;caret-color: rgb(255, 255, 255); color: rgb(255, 255, 255);&quot;&gt;:core:network&lt;/span&gt;" style="rounded=1;whiteSpace=wrap;html=1;fillColor=#1A73E8;strokeColor=none;fontSize=24;" parent="1" vertex="1">
          <mxGeometry x="1840" y="1540" width="200" height="50" as="geometry" />
        </mxCell>
        <mxCell id="15BEtwgOpc0CsVAxBUM_-8" value="&lt;font color=&quot;#ffffff&quot;&gt;:feature:search&lt;/font&gt;" style="rounded=1;whiteSpace=wrap;html=1;fillColor=#FF8A65;strokeColor=none;fontSize=24;flipV=0;flipH=0;" parent="1" vertex="1">
          <mxGeometry x="936" y="710" width="200" height="50" as="geometry" />
        </mxCell>
        <mxCell id="15BEtwgOpc0CsVAxBUM_-9" value="&lt;font color=&quot;#ffffff&quot;&gt;:feature:favorite&lt;/font&gt;" style="rounded=1;whiteSpace=wrap;html=1;fillColor=#FF8A65;strokeColor=none;fontSize=24;flipV=0;flipH=0;" parent="1" vertex="1">
          <mxGeometry x="2345" y="710" width="200" height="50" as="geometry" />
        </mxCell>
        <mxCell id="15BEtwgOpc0CsVAxBUM_-10" value="&lt;font color=&quot;#ffffff&quot;&gt;:feature:more&lt;/font&gt;" style="rounded=1;whiteSpace=wrap;html=1;fillColor=#FF8A65;strokeColor=none;fontSize=24;flipV=0;flipH=0;" parent="1" vertex="1">
          <mxGeometry x="2110" y="710" width="200" height="50" as="geometry" />
        </mxCell>
        <mxCell id="15BEtwgOpc0CsVAxBUM_-11" value="&lt;font color=&quot;#ffffff&quot;&gt;:feature:detail&lt;/font&gt;" style="rounded=1;whiteSpace=wrap;html=1;fillColor=#FF8A65;strokeColor=none;fontSize=24;flipV=0;flipH=0;" parent="1" vertex="1">
          <mxGeometry x="1875" y="710" width="200" height="50" as="geometry" />
        </mxCell>
        <mxCell id="15BEtwgOpc0CsVAxBUM_-12" value="&lt;font color=&quot;#ffffff&quot;&gt;:feature:person&lt;/font&gt;" style="rounded=1;whiteSpace=wrap;html=1;fillColor=#FF8A65;strokeColor=none;fontSize=24;flipV=0;flipH=0;" parent="1" vertex="1">
          <mxGeometry x="1170" y="710" width="200" height="50" as="geometry" />
        </mxCell>
        <mxCell id="15BEtwgOpc0CsVAxBUM_-13" value="" style="endArrow=classic;html=1;rounded=0;exitX=0.5;exitY=1;exitDx=0;exitDy=0;entryX=0.5;entryY=0;entryDx=0;entryDy=0;fontSize=24;" parent="1" source="15BEtwgOpc0CsVAxBUM_-3" target="15BEtwgOpc0CsVAxBUM_-4" edge="1">
          <mxGeometry width="50" height="50" relative="1" as="geometry">
            <mxPoint x="1578" y="530" as="sourcePoint" />
            <mxPoint x="1628" y="480" as="targetPoint" />
          </mxGeometry>
        </mxCell>
        <mxCell id="15BEtwgOpc0CsVAxBUM_-14" value="" style="endArrow=classic;html=1;rounded=0;exitX=0.5;exitY=1;exitDx=0;exitDy=0;entryX=0.5;entryY=0;entryDx=0;entryDy=0;fontSize=24;" parent="1" source="15BEtwgOpc0CsVAxBUM_-3" target="15BEtwgOpc0CsVAxBUM_-5" edge="1">
          <mxGeometry width="50" height="50" relative="1" as="geometry">
            <mxPoint x="1729" y="320" as="sourcePoint" />
            <mxPoint x="789" y="720" as="targetPoint" />
          </mxGeometry>
        </mxCell>
        <mxCell id="15BEtwgOpc0CsVAxBUM_-15" value="" style="endArrow=classic;html=1;rounded=0;exitX=0.5;exitY=1;exitDx=0;exitDy=0;entryX=0.5;entryY=0;entryDx=0;entryDy=0;fontSize=24;" parent="1" source="15BEtwgOpc0CsVAxBUM_-3" target="15BEtwgOpc0CsVAxBUM_-8" edge="1">
          <mxGeometry width="50" height="50" relative="1" as="geometry">
            <mxPoint x="1739" y="330" as="sourcePoint" />
            <mxPoint x="1024" y="720" as="targetPoint" />
          </mxGeometry>
        </mxCell>
        <mxCell id="15BEtwgOpc0CsVAxBUM_-16" value="" style="endArrow=classic;html=1;rounded=0;exitX=0.5;exitY=1;exitDx=0;exitDy=0;entryX=0.5;entryY=0;entryDx=0;entryDy=0;fontSize=24;" parent="1" source="15BEtwgOpc0CsVAxBUM_-3" target="15BEtwgOpc0CsVAxBUM_-9" edge="1">
          <mxGeometry width="50" height="50" relative="1" as="geometry">
            <mxPoint x="1759" y="350" as="sourcePoint" />
            <mxPoint x="1494" y="720" as="targetPoint" />
          </mxGeometry>
        </mxCell>
        <mxCell id="15BEtwgOpc0CsVAxBUM_-17" value="" style="endArrow=classic;html=1;rounded=0;exitX=0.5;exitY=1;exitDx=0;exitDy=0;entryX=0.5;entryY=0;entryDx=0;entryDy=0;fontSize=24;" parent="1" source="15BEtwgOpc0CsVAxBUM_-3" target="15BEtwgOpc0CsVAxBUM_-6" edge="1">
          <mxGeometry width="50" height="50" relative="1" as="geometry">
            <mxPoint x="1769" y="360" as="sourcePoint" />
            <mxPoint x="1729" y="720" as="targetPoint" />
          </mxGeometry>
        </mxCell>
        <mxCell id="15BEtwgOpc0CsVAxBUM_-18" value="" style="endArrow=classic;html=1;rounded=0;exitX=0.5;exitY=1;exitDx=0;exitDy=0;entryX=0.5;entryY=0;entryDx=0;entryDy=0;fontSize=24;" parent="1" source="15BEtwgOpc0CsVAxBUM_-3" target="15BEtwgOpc0CsVAxBUM_-10" edge="1">
          <mxGeometry width="50" height="50" relative="1" as="geometry">
            <mxPoint x="1779" y="370" as="sourcePoint" />
            <mxPoint x="1963" y="720" as="targetPoint" />
          </mxGeometry>
        </mxCell>
        <mxCell id="15BEtwgOpc0CsVAxBUM_-19" value="" style="endArrow=classic;html=1;rounded=0;exitX=0.5;exitY=1;exitDx=0;exitDy=0;entryX=0.5;entryY=0;entryDx=0;entryDy=0;fontSize=24;" parent="1" source="15BEtwgOpc0CsVAxBUM_-3" target="15BEtwgOpc0CsVAxBUM_-11" edge="1">
          <mxGeometry width="50" height="50" relative="1" as="geometry">
            <mxPoint x="1789" y="380" as="sourcePoint" />
            <mxPoint x="2198" y="720" as="targetPoint" />
          </mxGeometry>
        </mxCell>
        <mxCell id="15BEtwgOpc0CsVAxBUM_-20" value="" style="endArrow=classic;html=1;rounded=0;exitX=0.5;exitY=1;exitDx=0;exitDy=0;entryX=0.5;entryY=0;entryDx=0;entryDy=0;fontSize=24;" parent="1" source="15BEtwgOpc0CsVAxBUM_-3" target="15BEtwgOpc0CsVAxBUM_-12" edge="1">
          <mxGeometry width="50" height="50" relative="1" as="geometry">
            <mxPoint x="1799" y="390" as="sourcePoint" />
            <mxPoint x="2433" y="720" as="targetPoint" />
          </mxGeometry>
        </mxCell>
        <mxCell id="15BEtwgOpc0CsVAxBUM_-24" value="&lt;font color=&quot;#073042&quot;&gt;:navigation&lt;/font&gt;" style="rounded=1;whiteSpace=wrap;html=1;fillColor=none;strokeColor=#FF8A65;fontSize=24;strokeWidth=2;" parent="1" vertex="1">
          <mxGeometry x="2919" y="480" width="200" height="50" as="geometry" />
        </mxCell>
        <mxCell id="15BEtwgOpc0CsVAxBUM_-25" value="&lt;span style=&quot;caret-color: rgb(255, 255, 255); color: rgb(255, 255, 255);&quot;&gt;:core:user&lt;/span&gt;" style="rounded=1;whiteSpace=wrap;html=1;fillColor=#1A73E8;strokeColor=none;fontSize=24;" parent="1" vertex="1">
          <mxGeometry x="2110" y="1290" width="200" height="50" as="geometry" />
        </mxCell>
        <mxCell id="15BEtwgOpc0CsVAxBUM_-26" value="&lt;span style=&quot;caret-color: rgb(255, 255, 255); color: rgb(255, 255, 255);&quot;&gt;:core:movie&lt;/span&gt;" style="rounded=1;whiteSpace=wrap;html=1;fillColor=#1A73E8;strokeColor=none;fontSize=24;" parent="1" vertex="1">
          <mxGeometry x="1337" y="1290" width="200" height="50" as="geometry" />
        </mxCell>
        <mxCell id="15BEtwgOpc0CsVAxBUM_-27" value="&lt;font color=&quot;#ffffff&quot;&gt;:feature:about&lt;/font&gt;" style="rounded=1;whiteSpace=wrap;html=1;fillColor=#FF8A65;strokeColor=none;fontSize=24;flipV=0;flipH=0;" parent="1" vertex="1">
          <mxGeometry x="700" y="710" width="200" height="50" as="geometry" />
        </mxCell>
        <mxCell id="15BEtwgOpc0CsVAxBUM_-28" value="" style="endArrow=classic;html=1;rounded=0;exitX=0.5;exitY=1;exitDx=0;exitDy=0;entryX=0.5;entryY=0;entryDx=0;entryDy=0;fontSize=24;" parent="1" source="15BEtwgOpc0CsVAxBUM_-3" target="15BEtwgOpc0CsVAxBUM_-27" edge="1">
          <mxGeometry width="50" height="50" relative="1" as="geometry">
            <mxPoint x="1728" y="560" as="sourcePoint" />
            <mxPoint x="2418" y="720" as="targetPoint" />
          </mxGeometry>
        </mxCell>
        <mxCell id="15BEtwgOpc0CsVAxBUM_-29" value="&lt;font color=&quot;#073042&quot;&gt;:core:designsystem&lt;/font&gt;" style="rounded=1;whiteSpace=wrap;html=1;fillColor=#d5e8d4;strokeColor=#82b366;fontSize=24;strokeWidth=2;" parent="1" vertex="1">
          <mxGeometry x="460" y="480" width="230" height="50" as="geometry" />
        </mxCell>
        <mxCell id="15BEtwgOpc0CsVAxBUM_-31" value="&lt;font color=&quot;#ffffff&quot;&gt;:core:favoritewatchlist&lt;/font&gt;" style="rounded=1;whiteSpace=wrap;html=1;fillColor=#61BAFF;strokeColor=#006EAF;fontSize=24;fontColor=#ffffff;" parent="1" vertex="1">
          <mxGeometry x="2430" y="830" width="261" height="50" as="geometry" />
        </mxCell>
        <mxCell id="15BEtwgOpc0CsVAxBUM_-32" value="" style="endArrow=classic;html=1;rounded=0;exitX=0.5;exitY=1;exitDx=0;exitDy=0;entryX=0.5;entryY=0;entryDx=0;entryDy=0;fontSize=24;" parent="1" source="15BEtwgOpc0CsVAxBUM_-6" target="15BEtwgOpc0CsVAxBUM_-31" edge="1">
          <mxGeometry width="50" height="50" relative="1" as="geometry">
            <mxPoint x="1713" y="540" as="sourcePoint" />
            <mxPoint x="1479" y="720" as="targetPoint" />
          </mxGeometry>
        </mxCell>
        <mxCell id="15BEtwgOpc0CsVAxBUM_-33" value="" style="endArrow=classic;html=1;rounded=0;exitX=0.5;exitY=1;exitDx=0;exitDy=0;entryX=0.5;entryY=0;entryDx=0;entryDy=0;fontSize=24;" parent="1" source="15BEtwgOpc0CsVAxBUM_-9" target="15BEtwgOpc0CsVAxBUM_-31" edge="1">
          <mxGeometry width="50" height="50" relative="1" as="geometry">
            <mxPoint x="1713" y="770" as="sourcePoint" />
            <mxPoint x="1589" y="870" as="targetPoint" />
          </mxGeometry>
        </mxCell>
        <mxCell id="15BEtwgOpc0CsVAxBUM_-34" style="edgeStyle=orthogonalEdgeStyle;rounded=0;orthogonalLoop=1;jettySize=auto;html=1;exitX=0;exitY=0.5;exitDx=0;exitDy=0;entryX=0.5;entryY=1;entryDx=0;entryDy=0;fontSize=24;" parent="1" source="15BEtwgOpc0CsVAxBUM_-35" target="15BEtwgOpc0CsVAxBUM_-29" edge="1">
          <mxGeometry relative="1" as="geometry" />
        </mxCell>
        <mxCell id="_sa3wLyc80rB9nqz1X-L-1" value="&lt;font&gt;api&lt;/font&gt;" style="edgeLabel;html=1;align=center;verticalAlign=middle;resizable=0;points=[];fontSize=24;" parent="15BEtwgOpc0CsVAxBUM_-34" vertex="1" connectable="0">
          <mxGeometry x="0.3368" relative="1" as="geometry">
            <mxPoint y="-1" as="offset" />
          </mxGeometry>
        </mxCell>
        <mxCell id="15BEtwgOpc0CsVAxBUM_-35" value="&lt;span style=&quot;caret-color: rgb(255, 255, 255); color: rgb(255, 255, 255);&quot;&gt;:core:uihelper&lt;/span&gt;" style="rounded=1;whiteSpace=wrap;html=1;fillColor=#1A73E8;strokeColor=none;fontSize=24;flipH=0;flipV=0;" parent="1" vertex="1">
          <mxGeometry x="936" y="1130" width="200" height="50" as="geometry" />
        </mxCell>
        <mxCell id="15BEtwgOpc0CsVAxBUM_-36" value="" style="endArrow=classic;html=1;rounded=0;exitX=0.5;exitY=1;exitDx=0;exitDy=0;entryX=0.5;entryY=0;entryDx=0;entryDy=0;fontSize=24;" parent="1" source="15BEtwgOpc0CsVAxBUM_-31" target="15BEtwgOpc0CsVAxBUM_-35" edge="1">
          <mxGeometry width="50" height="50" relative="1" as="geometry">
            <mxPoint x="1501.5" y="1100" as="sourcePoint" />
            <mxPoint x="1611.5" y="1200" as="targetPoint" />
          </mxGeometry>
        </mxCell>
        <mxCell id="15BEtwgOpc0CsVAxBUM_-41" value="" style="endArrow=classic;html=1;rounded=0;entryX=0.5;entryY=0;entryDx=0;entryDy=0;exitX=0.5;exitY=1;exitDx=0;exitDy=0;fontSize=24;" parent="1" source="15BEtwgOpc0CsVAxBUM_-26" target="15BEtwgOpc0CsVAxBUM_-7" edge="1">
          <mxGeometry width="50" height="50" relative="1" as="geometry">
            <mxPoint x="1161.5" y="1400" as="sourcePoint" />
            <mxPoint x="1918.5" y="1550" as="targetPoint" />
          </mxGeometry>
        </mxCell>
        <mxCell id="15BEtwgOpc0CsVAxBUM_-42" value="&lt;font&gt;api&lt;/font&gt;" style="edgeLabel;html=1;align=center;verticalAlign=middle;resizable=0;points=[];fontSize=24;" parent="15BEtwgOpc0CsVAxBUM_-41" vertex="1" connectable="0">
          <mxGeometry x="-0.1277" y="5" relative="1" as="geometry">
            <mxPoint as="offset" />
          </mxGeometry>
        </mxCell>
        <mxCell id="15BEtwgOpc0CsVAxBUM_-43" value="" style="endArrow=classic;html=1;rounded=0;entryX=0.5;entryY=0;entryDx=0;entryDy=0;exitX=0.5;exitY=1;exitDx=0;exitDy=0;fontSize=24;" parent="1" source="15BEtwgOpc0CsVAxBUM_-26" target="15BEtwgOpc0CsVAxBUM_-52" edge="1">
          <mxGeometry width="50" height="50" relative="1" as="geometry">
            <mxPoint x="1171.5" y="1410" as="sourcePoint" />
            <mxPoint x="2224.5" y="1550" as="targetPoint" />
          </mxGeometry>
        </mxCell>
        <mxCell id="15BEtwgOpc0CsVAxBUM_-44" value="&lt;font&gt;api&lt;/font&gt;" style="edgeLabel;html=1;align=center;verticalAlign=middle;resizable=0;points=[];fontSize=24;" parent="15BEtwgOpc0CsVAxBUM_-43" vertex="1" connectable="0">
          <mxGeometry x="-0.1259" relative="1" as="geometry">
            <mxPoint as="offset" />
          </mxGeometry>
        </mxCell>
        <mxCell id="15BEtwgOpc0CsVAxBUM_-49" value="" style="endArrow=classic;html=1;rounded=0;entryX=0.5;entryY=0;entryDx=0;entryDy=0;exitX=0.5;exitY=1;exitDx=0;exitDy=0;fontSize=24;" parent="1" source="15BEtwgOpc0CsVAxBUM_-25" target="15BEtwgOpc0CsVAxBUM_-7" edge="1">
          <mxGeometry width="50" height="50" relative="1" as="geometry">
            <mxPoint x="1691.5" y="1970" as="sourcePoint" />
            <mxPoint x="1818.5" y="1600" as="targetPoint" />
          </mxGeometry>
        </mxCell>
        <mxCell id="15BEtwgOpc0CsVAxBUM_-50" value="&lt;font&gt;api&lt;/font&gt;" style="edgeLabel;html=1;align=center;verticalAlign=middle;resizable=0;points=[];fontSize=24;" parent="15BEtwgOpc0CsVAxBUM_-49" vertex="1" connectable="0">
          <mxGeometry x="-0.1332" y="-4" relative="1" as="geometry">
            <mxPoint x="-1" y="-1" as="offset" />
          </mxGeometry>
        </mxCell>
        <mxCell id="15BEtwgOpc0CsVAxBUM_-51" value="" style="endArrow=classic;html=1;rounded=0;exitX=0.5;exitY=1;exitDx=0;exitDy=0;entryX=0.5;entryY=0;entryDx=0;entryDy=0;fontSize=24;" parent="1" source="15BEtwgOpc0CsVAxBUM_-31" target="15BEtwgOpc0CsVAxBUM_-26" edge="1">
          <mxGeometry width="50" height="50" relative="1" as="geometry">
            <mxPoint x="1589" y="940" as="sourcePoint" />
            <mxPoint x="1292" y="1780" as="targetPoint" />
          </mxGeometry>
        </mxCell>
        <mxCell id="15BEtwgOpc0CsVAxBUM_-52" value="&lt;span style=&quot;caret-color: rgb(255, 255, 255); color: rgb(255, 255, 255);&quot;&gt;:core:database&lt;/span&gt;" style="rounded=1;whiteSpace=wrap;html=1;fillColor=#1A73E8;strokeColor=none;fontSize=24;" parent="1" vertex="1">
          <mxGeometry x="1532" y="1540" width="200" height="50" as="geometry" />
        </mxCell>
        <mxCell id="15BEtwgOpc0CsVAxBUM_-53" value="" style="endArrow=classic;html=1;rounded=0;entryX=0.5;entryY=0;entryDx=0;entryDy=0;exitX=0.5;exitY=1;exitDx=0;exitDy=0;fontSize=24;" parent="1" source="15BEtwgOpc0CsVAxBUM_-11" target="15BEtwgOpc0CsVAxBUM_-26" edge="1">
          <mxGeometry width="50" height="50" relative="1" as="geometry">
            <mxPoint x="1829" y="1130" as="sourcePoint" />
            <mxPoint x="1879" y="1080" as="targetPoint" />
          </mxGeometry>
        </mxCell>
        <mxCell id="15BEtwgOpc0CsVAxBUM_-54" value="" style="endArrow=classic;html=1;rounded=0;entryX=0.5;entryY=0;entryDx=0;entryDy=0;exitX=0.5;exitY=1;exitDx=0;exitDy=0;fontSize=24;" parent="1" source="15BEtwgOpc0CsVAxBUM_-11" target="15BEtwgOpc0CsVAxBUM_-35" edge="1">
          <mxGeometry width="50" height="50" relative="1" as="geometry">
            <mxPoint x="2079" y="840" as="sourcePoint" />
            <mxPoint x="2089" y="1000" as="targetPoint" />
          </mxGeometry>
        </mxCell>
        <mxCell id="15BEtwgOpc0CsVAxBUM_-57" value="" style="endArrow=classic;html=1;rounded=0;exitX=0.5;exitY=1;exitDx=0;exitDy=0;entryX=0.5;entryY=0;entryDx=0;entryDy=0;fontSize=24;" parent="1" source="15BEtwgOpc0CsVAxBUM_-5" target="15BEtwgOpc0CsVAxBUM_-25" edge="1">
          <mxGeometry width="50" height="50" relative="1" as="geometry">
            <mxPoint x="989" y="800" as="sourcePoint" />
            <mxPoint x="979" y="960" as="targetPoint" />
          </mxGeometry>
        </mxCell>
        <mxCell id="15BEtwgOpc0CsVAxBUM_-58" value="" style="endArrow=classic;html=1;rounded=0;exitX=0.5;exitY=1;exitDx=0;exitDy=0;entryX=0.5;entryY=0;entryDx=0;entryDy=0;fontSize=24;" parent="1" source="15BEtwgOpc0CsVAxBUM_-5" target="15BEtwgOpc0CsVAxBUM_-35" edge="1">
          <mxGeometry width="50" height="50" relative="1" as="geometry">
            <mxPoint x="1019" y="830" as="sourcePoint" />
            <mxPoint x="1009" y="990" as="targetPoint" />
          </mxGeometry>
        </mxCell>
        <mxCell id="15BEtwgOpc0CsVAxBUM_-59" value="" style="endArrow=classic;html=1;rounded=0;entryX=0.5;entryY=0;entryDx=0;entryDy=0;exitX=0.5;exitY=1;exitDx=0;exitDy=0;fontSize=24;" parent="1" source="15BEtwgOpc0CsVAxBUM_-27" target="15BEtwgOpc0CsVAxBUM_-35" edge="1">
          <mxGeometry width="50" height="50" relative="1" as="geometry">
            <mxPoint x="2173" y="770" as="sourcePoint" />
            <mxPoint x="2173" y="1060" as="targetPoint" />
          </mxGeometry>
        </mxCell>
        <mxCell id="15BEtwgOpc0CsVAxBUM_-60" value="" style="endArrow=classic;html=1;rounded=0;exitX=0.5;exitY=1;exitDx=0;exitDy=0;entryX=0.5;entryY=0;entryDx=0;entryDy=0;fontSize=24;" parent="1" source="15BEtwgOpc0CsVAxBUM_-4" target="15BEtwgOpc0CsVAxBUM_-35" edge="1">
          <mxGeometry width="50" height="50" relative="1" as="geometry">
            <mxPoint x="1020" y="770" as="sourcePoint" />
            <mxPoint x="849" y="1410" as="targetPoint" />
          </mxGeometry>
        </mxCell>
        <mxCell id="15BEtwgOpc0CsVAxBUM_-61" value="" style="endArrow=classic;html=1;rounded=0;exitX=0.5;exitY=1;exitDx=0;exitDy=0;entryX=0.5;entryY=0;entryDx=0;entryDy=0;fontSize=24;" parent="1" source="15BEtwgOpc0CsVAxBUM_-4" target="15BEtwgOpc0CsVAxBUM_-25" edge="1">
          <mxGeometry width="50" height="50" relative="1" as="geometry">
            <mxPoint x="789" y="770" as="sourcePoint" />
            <mxPoint x="999" y="1550" as="targetPoint" />
          </mxGeometry>
        </mxCell>
        <mxCell id="15BEtwgOpc0CsVAxBUM_-62" value="" style="endArrow=classic;html=1;rounded=0;exitX=0.5;exitY=1;exitDx=0;exitDy=0;entryX=0.5;entryY=0;entryDx=0;entryDy=0;fontSize=24;" parent="1" source="15BEtwgOpc0CsVAxBUM_-4" target="15BEtwgOpc0CsVAxBUM_-26" edge="1">
          <mxGeometry width="50" height="50" relative="1" as="geometry">
            <mxPoint x="789" y="770" as="sourcePoint" />
            <mxPoint x="1973" y="1540" as="targetPoint" />
          </mxGeometry>
        </mxCell>
        <mxCell id="15BEtwgOpc0CsVAxBUM_-63" style="edgeStyle=orthogonalEdgeStyle;rounded=0;orthogonalLoop=1;jettySize=auto;html=1;exitX=0.5;exitY=0;exitDx=0;exitDy=0;entryX=0.5;entryY=1;entryDx=0;entryDy=0;fontSize=24;" parent="1" source="15BEtwgOpc0CsVAxBUM_-64" target="15BEtwgOpc0CsVAxBUM_-24" edge="1">
          <mxGeometry relative="1" as="geometry" />
        </mxCell>
        <mxCell id="15BEtwgOpc0CsVAxBUM_-64" value="&lt;font color=&quot;#ffffff&quot;&gt;:feature:....&lt;/font&gt;" style="rounded=1;whiteSpace=wrap;html=1;fillColor=#FF8A65;strokeColor=none;fontSize=24;" parent="1" vertex="1">
          <mxGeometry x="2919" y="710" width="200" height="50" as="geometry" />
        </mxCell>
        <mxCell id="15BEtwgOpc0CsVAxBUM_-65" value="" style="endArrow=classic;html=1;rounded=0;entryX=0.5;entryY=0;entryDx=0;entryDy=0;exitX=0.5;exitY=1;exitDx=0;exitDy=0;fontSize=24;" parent="1" source="15BEtwgOpc0CsVAxBUM_-12" target="15BEtwgOpc0CsVAxBUM_-35" edge="1">
          <mxGeometry width="50" height="50" relative="1" as="geometry">
            <mxPoint x="2634" y="770" as="sourcePoint" />
            <mxPoint x="1020" y="1560" as="targetPoint" />
          </mxGeometry>
        </mxCell>
        <mxCell id="15BEtwgOpc0CsVAxBUM_-66" value="" style="endArrow=classic;html=1;rounded=0;exitX=0.5;exitY=1;exitDx=0;exitDy=0;entryX=0.5;entryY=0;entryDx=0;entryDy=0;fontSize=24;" parent="1" source="15BEtwgOpc0CsVAxBUM_-12" target="15BEtwgOpc0CsVAxBUM_-26" edge="1">
          <mxGeometry width="50" height="50" relative="1" as="geometry">
            <mxPoint x="2403" y="770" as="sourcePoint" />
            <mxPoint x="1609" y="1882.2222222222222" as="targetPoint" />
          </mxGeometry>
        </mxCell>
        <mxCell id="15BEtwgOpc0CsVAxBUM_-67" value="" style="endArrow=classic;html=1;rounded=0;exitX=0.5;exitY=1;exitDx=0;exitDy=0;entryX=0.5;entryY=0;entryDx=0;entryDy=0;fontSize=24;" parent="1" source="15BEtwgOpc0CsVAxBUM_-8" target="15BEtwgOpc0CsVAxBUM_-26" edge="1">
          <mxGeometry width="50" height="50" relative="1" as="geometry">
            <mxPoint x="789" y="770" as="sourcePoint" />
            <mxPoint x="2173" y="1270" as="targetPoint" />
          </mxGeometry>
        </mxCell>
        <mxCell id="15BEtwgOpc0CsVAxBUM_-68" value="" style="endArrow=classic;html=1;rounded=0;entryX=0.5;entryY=0;entryDx=0;entryDy=0;exitX=0.5;exitY=1;exitDx=0;exitDy=0;fontSize=24;" parent="1" source="15BEtwgOpc0CsVAxBUM_-10" target="15BEtwgOpc0CsVAxBUM_-25" edge="1">
          <mxGeometry width="50" height="50" relative="1" as="geometry">
            <mxPoint x="2173" y="770" as="sourcePoint" />
            <mxPoint x="1929" y="1290" as="targetPoint" />
          </mxGeometry>
        </mxCell>
        <mxCell id="15BEtwgOpc0CsVAxBUM_-69" value="" style="endArrow=classic;html=1;rounded=0;entryX=0.5;entryY=0;entryDx=0;entryDy=0;exitX=0.5;exitY=1;exitDx=0;exitDy=0;fontSize=24;" parent="1" source="15BEtwgOpc0CsVAxBUM_-10" target="15BEtwgOpc0CsVAxBUM_-52" edge="1">
          <mxGeometry width="50" height="50" relative="1" as="geometry">
            <mxPoint x="1942" y="770" as="sourcePoint" />
            <mxPoint x="2049" y="1600" as="targetPoint" />
          </mxGeometry>
        </mxCell>
        <mxCell id="15BEtwgOpc0CsVAxBUM_-70" value="" style="endArrow=classic;html=1;rounded=0;exitX=0.5;exitY=1;exitDx=0;exitDy=0;entryX=0.5;entryY=0;entryDx=0;entryDy=0;fontSize=24;" parent="1" source="15BEtwgOpc0CsVAxBUM_-8" target="15BEtwgOpc0CsVAxBUM_-35" edge="1">
          <mxGeometry width="50" height="50" relative="1" as="geometry">
            <mxPoint x="1977" y="770" as="sourcePoint" />
            <mxPoint x="1359" y="1290" as="targetPoint" />
          </mxGeometry>
        </mxCell>
        <mxCell id="_sa3wLyc80rB9nqz1X-L-2" value="" style="endArrow=classic;html=1;rounded=0;entryX=0.5;entryY=0;entryDx=0;entryDy=0;fontSize=24;exitX=0.5;exitY=1;exitDx=0;exitDy=0;" parent="1" source="15BEtwgOpc0CsVAxBUM_-31" target="15BEtwgOpc0CsVAxBUM_-25" edge="1">
          <mxGeometry width="50" height="50" relative="1" as="geometry">
            <mxPoint x="2580" y="970" as="sourcePoint" />
            <mxPoint x="1599" y="1550" as="targetPoint" />
          </mxGeometry>
        </mxCell>
      </root>
    </mxGraphModel>
  </diagram>
</mxfile>
